<svg width="760" height="793" viewBox="0 0 760 793" fill="none" xmlns="http://www.w3.org/2000/svg">
<path fill-rule="evenodd" clip-rule="evenodd" d="M144.399 0.197132H634.555C652.297 0.197132 669.25 4.04111 684.429 10.9406C697.833 16.4601 710.449 24.3452 721.489 34.793C770.179 80.7236 772.446 158.194 726.515 206.885L210.141 754.602C164.21 803.293 86.8379 805.56 38.049 759.629C-10.6414 713.699 -12.9084 636.326 33.0222 587.537L344.779 256.758C346.947 254.392 347.538 251.14 346.257 248.183C344.976 245.226 342.216 243.452 338.963 243.452H144.202C77.2772 243.452 22.4759 188.651 22.4759 121.726C22.4759 54.8013 77.2772 0 144.202 0" fill="#D4593B"/>
<path fill-rule="evenodd" clip-rule="evenodd" d="M630.612 791.954C559.449 791.954 501.69 734.195 501.69 663.032C501.69 591.87 559.449 534.111 630.612 534.111H759.533V661.751C759.533 661.751 759.533 662.54 759.533 663.032C759.533 734.195 701.774 791.954 630.612 791.954Z" fill="#D4593B"/>
</svg>
