<svg width="23" height="24" viewBox="0 0 23 24" fill="none" xmlns="http://www.w3.org/2000/svg">
<path fill-rule="evenodd" clip-rule="evenodd" d="M4.37408 0.00596878H19.2151C19.7523 0.00596878 20.2656 0.122357 20.7252 0.33126C21.131 0.498382 21.513 0.737128 21.8473 1.05347C23.3215 2.44416 23.3902 4.78983 21.9995 6.26409L6.36463 22.8479C4.97393 24.3222 2.63124 24.3908 1.154 23.0002C-0.32025 21.6095 -0.38889 19.2668 1.0018 17.7895L10.4412 7.77415C10.5069 7.70253 10.5248 7.60405 10.486 7.51452C10.4472 7.42499 10.3636 7.37127 10.2651 7.37127H4.36812C2.34176 7.37127 0.682481 5.71199 0.682481 3.68564C0.682481 1.65928 2.34176 0 4.36812 0" fill="white"/>
<path fill-rule="evenodd" clip-rule="evenodd" d="M19.0949 23.9789C16.9402 23.9789 15.1914 22.23 15.1914 20.0754C15.1914 17.9207 16.9402 16.1719 19.0949 16.1719H22.9984V20.0366C22.9984 20.0366 22.9984 20.0604 22.9984 20.0754C22.9984 22.23 21.2496 23.9789 19.0949 23.9789Z" fill="white"/>
</svg>
