<svg width="307" height="76" viewBox="0 0 307 76" fill="none" xmlns="http://www.w3.org/2000/svg">
<path d="M18.937 75.7481H56.8111C67.2692 75.7481 75.7481 67.2692 75.7481 56.8111V18.937C75.7481 8.4789 67.2692 0 56.8111 0H18.937C8.4789 0 0 8.4789 0 18.937V56.8111C0 67.2692 8.4789 75.7481 18.937 75.7481Z" fill="white"/>
<path fill-rule="evenodd" clip-rule="evenodd" d="M25.9984 17.883H50.729C51.6241 17.883 52.4795 18.0769 53.2453 18.425C53.9216 18.7035 54.5582 19.1014 55.1151 19.6285C57.5718 21.9459 57.6861 25.8546 55.3688 28.3113L29.3154 55.946C26.998 58.4027 23.0942 58.5171 20.6326 56.1997C18.176 53.8823 18.0616 49.9785 20.379 47.5169L36.1085 30.8276C36.2179 30.7083 36.2477 30.5441 36.1831 30.395C36.1184 30.2458 35.9792 30.1563 35.8151 30.1563H25.9885C22.6119 30.1563 19.8469 27.3913 19.8469 24.0147C19.8469 20.638 22.6119 17.873 25.9885 17.873" fill="#F15A38"/>
<path fill-rule="evenodd" clip-rule="evenodd" d="M50.53 57.8296C46.9395 57.8296 44.0254 54.9154 44.0254 51.3249C44.0254 47.7345 46.9395 44.8203 50.53 44.8203H57.0347V51.2603C57.0347 51.2603 57.0347 51.3001 57.0347 51.3249C57.0347 54.9154 54.1205 57.8296 50.53 57.8296Z" fill="#F15A38"/>
<path d="M299.704 75.5622C299.558 75.5622 299.446 75.517 299.37 75.4264C299.293 75.329 299.255 75.1897 299.255 75.0087V69.3694C299.255 69.1884 299.307 69.0422 299.412 68.9308C299.516 68.8194 299.655 68.7637 299.829 68.7637H301.751C302.579 68.7637 303.206 68.9342 303.631 69.2754C304.062 69.6165 304.278 70.1213 304.278 70.7897C304.278 71.2979 304.142 71.7191 303.871 72.0533C303.599 72.3805 303.206 72.5998 302.691 72.7112C302.558 72.7391 302.416 72.7599 302.263 72.7739L304.236 75.1236C304.257 75.1445 304.243 75.1932 304.195 75.2698C304.146 75.3464 304.069 75.416 303.965 75.4787C303.867 75.5344 303.749 75.5622 303.61 75.5622C303.47 75.5622 303.349 75.5309 303.244 75.4682C303.14 75.4056 303.028 75.2976 302.91 75.1445L301.062 72.8783H300.32V75.0714C300.32 75.2245 300.278 75.3464 300.195 75.4369C300.118 75.5204 300.003 75.5622 299.85 75.5622H299.704ZM301.73 72.0324C302.217 72.0324 302.583 71.928 302.826 71.7191C303.07 71.5102 303.192 71.2178 303.192 70.8419C303.192 70.0482 302.694 69.6513 301.699 69.6513H300.31V72.0324H301.73Z" fill="white"/>
<path d="M293.096 75.5728C292.998 75.5728 292.901 75.5554 292.803 75.5206C292.713 75.4788 292.636 75.4336 292.574 75.3848C292.518 75.3291 292.497 75.2839 292.511 75.2491L294.913 69.0458C294.955 68.9274 295.031 68.8404 295.143 68.7847C295.254 68.729 295.425 68.7012 295.654 68.7012C295.891 68.7012 296.062 68.729 296.166 68.7847C296.278 68.8404 296.354 68.9274 296.396 69.0458L298.819 75.2491C298.833 75.2769 298.808 75.3187 298.746 75.3744C298.69 75.4231 298.613 75.4684 298.516 75.5101C298.418 75.5519 298.321 75.5728 298.223 75.5728C297.924 75.5728 297.712 75.4057 297.586 75.0715L296.991 73.5364H294.286L293.691 75.082C293.573 75.4092 293.374 75.5728 293.096 75.5728ZM296.72 72.6696L295.634 69.8082L294.547 72.6696H296.72Z" fill="white"/>
<path d="M286.619 69.3694C286.619 69.1884 286.671 69.0422 286.776 68.9308C286.887 68.8194 287.026 68.7637 287.194 68.7637H288.844C289.602 68.7637 290.257 68.8994 290.807 69.171C291.357 69.4355 291.778 69.8219 292.071 70.3302C292.363 70.8314 292.509 71.4302 292.509 72.1264C292.509 72.8226 292.359 73.4283 292.06 73.9435C291.768 74.4517 291.339 74.8416 290.776 75.1131C290.219 75.3847 289.557 75.5204 288.791 75.5204H287.214C287.047 75.5204 286.905 75.4613 286.786 75.3429C286.675 75.2245 286.619 75.0853 286.619 74.9252V69.3694ZM288.812 74.591C289.641 74.591 290.281 74.3786 290.734 73.954C291.193 73.5223 291.423 72.9166 291.423 72.1368C291.423 71.371 291.193 70.7723 290.734 70.3406C290.274 69.9089 289.637 69.6931 288.823 69.6931H287.684V74.591H288.812Z" fill="white"/>
<path d="M284.428 69.2115C284.428 68.8843 284.581 68.7207 284.887 68.7207H285.033C285.347 68.7207 285.503 68.8843 285.503 69.2115V75.0702C285.503 75.3974 285.347 75.561 285.033 75.561H284.887C284.581 75.561 284.428 75.3974 284.428 75.0702V69.2115Z" fill="white"/>
<path d="M277.876 69.2115C277.876 69.0514 277.914 68.9296 277.991 68.846C278.074 68.7625 278.189 68.7207 278.335 68.7207H278.482C278.795 68.7207 278.952 68.8843 278.952 69.2115V72.7413C278.952 73.3819 279.091 73.8692 279.369 74.2034C279.655 74.5306 280.076 74.6942 280.633 74.6942C281.204 74.6942 281.625 74.5341 281.897 74.2138C282.175 73.8866 282.314 73.3923 282.314 72.7309V69.2115C282.314 68.8843 282.468 68.7207 282.774 68.7207H282.941C283.24 68.7207 283.39 68.8843 283.39 69.2115V72.7518C283.39 73.6917 283.153 74.4088 282.68 74.9031C282.206 75.3974 281.521 75.6446 280.623 75.6446C279.724 75.6446 279.042 75.4009 278.576 74.9135C278.109 74.4262 277.876 73.7126 277.876 72.7727V69.2115Z" fill="white"/>
<path d="M271.252 72.1568C271.252 71.4745 271.398 70.8653 271.691 70.3292C271.983 69.7931 272.387 69.3754 272.902 69.076C273.424 68.7766 274.019 68.627 274.688 68.627C275.447 68.627 276.084 68.808 276.599 69.17C276.801 69.3092 276.957 69.4624 277.069 69.6295C277.18 69.7896 277.236 69.9324 277.236 70.0577C277.236 70.2108 277.187 70.3327 277.09 70.4232C276.999 70.5137 276.898 70.5798 276.787 70.6216C276.675 70.6564 276.616 70.6634 276.609 70.6425C276.421 70.3083 276.153 70.0507 275.805 69.8697C275.457 69.6887 275.088 69.5982 274.698 69.5982C274.246 69.5982 273.842 69.7061 273.487 69.9219C273.139 70.1308 272.864 70.4301 272.662 70.82C272.467 71.2029 272.369 71.6416 272.369 72.1359C272.369 72.6232 272.47 73.0618 272.672 73.4517C272.874 73.8416 273.153 74.1445 273.508 74.3603C273.87 74.5761 274.274 74.684 274.719 74.684C275.179 74.684 275.582 74.5796 275.931 74.3707C276.286 74.1549 276.533 73.866 276.672 73.5039C276.679 73.483 276.742 73.49 276.86 73.5248C276.985 73.5596 277.097 73.6223 277.194 73.7128C277.292 73.8033 277.34 73.9251 277.34 74.0783C277.34 74.2106 277.281 74.3672 277.163 74.5483C277.051 74.7293 276.888 74.8964 276.672 75.0495C276.129 75.4533 275.457 75.6552 274.656 75.6552C273.995 75.6552 273.407 75.509 272.892 75.2166C272.376 74.9173 271.973 74.503 271.68 73.9739C271.395 73.4378 271.252 72.8321 271.252 72.1568Z" fill="white"/>
<path d="M265.02 75.5204C264.846 75.5204 264.706 75.4682 264.602 75.3638C264.498 75.2524 264.445 75.1062 264.445 74.9252V69.3694C264.445 69.1884 264.498 69.0422 264.602 68.9308C264.706 68.8194 264.846 68.7637 265.02 68.7637H268.936C269.103 68.7637 269.228 68.802 269.312 68.8785C269.395 68.9551 269.437 69.0665 269.437 69.2127V69.2754C269.437 69.5748 269.27 69.7244 268.936 69.7244H265.521V71.6147H268.163C268.497 71.6147 268.664 71.7574 268.664 72.0428V72.0742C268.664 72.3735 268.497 72.5232 268.163 72.5232H265.521V74.5701H268.999C269.326 74.5701 269.489 74.7128 269.489 74.9983V75.0505C269.489 75.3638 269.326 75.5204 268.999 75.5204H265.02Z" fill="white"/>
<path d="M257.805 75.5622C257.659 75.5622 257.548 75.517 257.471 75.4264C257.395 75.329 257.356 75.1897 257.356 75.0087V69.3694C257.356 69.1884 257.409 69.0422 257.513 68.9308C257.618 68.8194 257.757 68.7637 257.931 68.7637H259.852C260.681 68.7637 261.307 68.9342 261.732 69.2754C262.164 69.6165 262.38 70.1213 262.38 70.7897C262.38 71.2979 262.244 71.7191 261.972 72.0533C261.701 72.3805 261.307 72.5998 260.792 72.7112C260.66 72.7391 260.517 72.7599 260.364 72.7739L262.338 75.1236C262.359 75.1445 262.345 75.1932 262.296 75.2698C262.247 75.3464 262.171 75.416 262.066 75.4787C261.969 75.5344 261.851 75.5622 261.711 75.5622C261.572 75.5622 261.45 75.5309 261.346 75.4682C261.241 75.4056 261.13 75.2976 261.012 75.1445L259.163 72.8783H258.422V75.0714C258.422 75.2245 258.38 75.3464 258.296 75.4369C258.22 75.5204 258.105 75.5622 257.952 75.5622H257.805ZM259.831 72.0324C260.319 72.0324 260.684 71.928 260.928 71.7191C261.172 71.5102 261.294 71.2178 261.294 70.8419C261.294 70.0482 260.796 69.6513 259.8 69.6513H258.411V72.0324H259.831Z" fill="white"/>
<path d="M251.196 75.5728C251.099 75.5728 251.001 75.5554 250.904 75.5206C250.813 75.4788 250.737 75.4336 250.674 75.3848C250.619 75.3291 250.598 75.2839 250.612 75.2491L253.014 69.0458C253.055 68.9274 253.132 68.8404 253.243 68.7847C253.355 68.729 253.525 68.7012 253.755 68.7012C253.992 68.7012 254.162 68.729 254.267 68.7847C254.378 68.8404 254.455 68.9274 254.496 69.0458L256.919 75.2491C256.933 75.2769 256.909 75.3187 256.846 75.3744C256.79 75.4231 256.714 75.4684 256.616 75.5101C256.519 75.5519 256.422 75.5728 256.324 75.5728C256.025 75.5728 255.812 75.4057 255.687 75.0715L255.092 73.5364H252.387L251.792 75.082C251.673 75.4092 251.475 75.5728 251.196 75.5728ZM254.82 72.6696L253.734 69.8082L252.648 72.6696H254.82Z" fill="white"/>
<path d="M244.489 72.1568C244.489 71.4745 244.635 70.8653 244.928 70.3292C245.22 69.7931 245.624 69.3754 246.139 69.076C246.661 68.7766 247.257 68.627 247.925 68.627C248.684 68.627 249.321 68.808 249.836 69.17C250.038 69.3092 250.195 69.4624 250.306 69.6295C250.418 69.7896 250.473 69.9324 250.473 70.0577C250.473 70.2108 250.424 70.3327 250.327 70.4232C250.236 70.5137 250.136 70.5798 250.024 70.6216C249.913 70.6564 249.854 70.6634 249.847 70.6425C249.659 70.3083 249.391 70.0507 249.042 69.8697C248.694 69.6887 248.325 69.5982 247.936 69.5982C247.483 69.5982 247.079 69.7061 246.724 69.9219C246.376 70.1308 246.101 70.4301 245.899 70.82C245.704 71.2029 245.607 71.6416 245.607 72.1359C245.607 72.6232 245.708 73.0618 245.91 73.4517C246.111 73.8416 246.39 74.1445 246.745 74.3603C247.107 74.5761 247.511 74.684 247.956 74.684C248.416 74.684 248.82 74.5796 249.168 74.3707C249.523 74.1549 249.77 73.866 249.909 73.5039C249.916 73.483 249.979 73.49 250.097 73.5248C250.223 73.5596 250.334 73.6223 250.431 73.7128C250.529 73.8033 250.578 73.9251 250.578 74.0783C250.578 74.2106 250.518 74.3672 250.4 74.5483C250.289 74.7293 250.125 74.8964 249.909 75.0495C249.366 75.4533 248.694 75.6552 247.894 75.6552C247.232 75.6552 246.644 75.509 246.129 75.2166C245.614 74.9173 245.21 74.503 244.917 73.9739C244.632 73.4378 244.489 72.8321 244.489 72.1568Z" fill="white"/>
<path d="M238.292 69.2115C238.292 69.0514 238.33 68.9296 238.407 68.846C238.49 68.7625 238.605 68.7207 238.751 68.7207H238.898C239.211 68.7207 239.368 68.8843 239.368 69.2115V72.7413C239.368 73.3819 239.507 73.8692 239.785 74.2034C240.071 74.5306 240.492 74.6942 241.049 74.6942C241.62 74.6942 242.041 74.5341 242.313 74.2138C242.591 73.8866 242.73 73.3923 242.73 72.7309V69.2115C242.73 68.8843 242.884 68.7207 243.19 68.7207H243.357C243.656 68.7207 243.806 68.8843 243.806 69.2115V72.7518C243.806 73.6917 243.569 74.4088 243.096 74.9031C242.622 75.3974 241.937 75.6446 241.039 75.6446C240.14 75.6446 239.458 75.4009 238.992 74.9135C238.525 74.4262 238.292 73.7126 238.292 72.7727V69.2115Z" fill="white"/>
<path d="M231.726 69.3694C231.726 69.1884 231.778 69.0422 231.882 68.9308C231.994 68.8194 232.133 68.7637 232.3 68.7637H233.95C234.709 68.7637 235.363 68.8994 235.913 69.171C236.463 69.4355 236.885 69.8219 237.177 70.3302C237.469 70.8314 237.616 71.4302 237.616 72.1264C237.616 72.8226 237.466 73.4283 237.167 73.9435C236.874 74.4517 236.446 74.8416 235.882 75.1131C235.325 75.3847 234.664 75.5204 233.898 75.5204H232.321C232.154 75.5204 232.011 75.4613 231.893 75.3429C231.781 75.2245 231.726 75.0853 231.726 74.9252V69.3694ZM233.919 74.591C234.747 74.591 235.388 74.3786 235.84 73.954C236.3 73.5223 236.529 72.9166 236.529 72.1368C236.529 71.371 236.3 70.7723 235.84 70.3406C235.381 69.9089 234.744 69.6931 233.929 69.6931H232.791V74.591H233.919Z" fill="white"/>
<path d="M226.589 75.5204C226.415 75.5204 226.276 75.4682 226.171 75.3638C226.067 75.2524 226.015 75.1062 226.015 74.9252V69.3694C226.015 69.1884 226.067 69.0422 226.171 68.9308C226.276 68.8194 226.415 68.7637 226.589 68.7637H230.505C230.672 68.7637 230.798 68.802 230.881 68.8785C230.965 68.9551 231.007 69.0665 231.007 69.2127V69.2754C231.007 69.5748 230.839 69.7244 230.505 69.7244H227.09V71.6147H229.732C230.067 71.6147 230.234 71.7574 230.234 72.0428V72.0742C230.234 72.3735 230.067 72.5232 229.732 72.5232H227.09V74.5701H230.568C230.895 74.5701 231.059 74.7128 231.059 74.9983V75.0505C231.059 75.3638 230.895 75.5204 230.568 75.5204H226.589Z" fill="white"/>
<path d="M218.814 75.5728C218.716 75.5728 218.619 75.5554 218.521 75.5206C218.431 75.4788 218.354 75.4336 218.291 75.3848C218.236 75.3291 218.215 75.2839 218.229 75.2491L220.631 69.0458C220.672 68.9274 220.749 68.8404 220.86 68.7847C220.972 68.729 221.142 68.7012 221.372 68.7012C221.609 68.7012 221.779 68.729 221.884 68.7847C221.995 68.8404 222.072 68.9274 222.114 69.0458L224.536 75.2491C224.55 75.2769 224.526 75.3187 224.463 75.3744C224.408 75.4231 224.331 75.4684 224.234 75.5101C224.136 75.5519 224.039 75.5728 223.941 75.5728C223.642 75.5728 223.43 75.4057 223.304 75.0715L222.709 73.5364H220.004L219.409 75.082C219.291 75.4092 219.092 75.5728 218.814 75.5728ZM222.437 72.6696L221.351 69.8082L220.265 72.6696H222.437Z" fill="white"/>
<path d="M213.602 75.5622C213.456 75.5622 213.345 75.517 213.268 75.4264C213.192 75.329 213.153 75.1897 213.153 75.0087V69.3694C213.153 69.1884 213.206 69.0422 213.31 68.9308C213.414 68.8194 213.554 68.7637 213.728 68.7637H215.649C216.478 68.7637 217.104 68.9342 217.529 69.2754C217.961 69.6165 218.176 70.1213 218.176 70.7897C218.176 71.2979 218.041 71.7191 217.769 72.0533C217.498 72.3805 217.104 72.5998 216.589 72.7112C216.457 72.7391 216.314 72.7599 216.161 72.7739L218.135 75.1236C218.156 75.1445 218.142 75.1932 218.093 75.2698C218.044 75.3464 217.968 75.416 217.863 75.4787C217.766 75.5344 217.647 75.5622 217.508 75.5622C217.369 75.5622 217.247 75.5309 217.143 75.4682C217.038 75.4056 216.927 75.2976 216.808 75.1445L214.96 72.8783H214.219V75.0714C214.219 75.2245 214.177 75.3464 214.093 75.4369C214.017 75.5204 213.902 75.5622 213.749 75.5622H213.602ZM215.628 72.0324C216.116 72.0324 216.481 71.928 216.725 71.7191C216.969 71.5102 217.09 71.2178 217.09 70.8419C217.09 70.0482 216.593 69.6513 215.597 69.6513H214.208V72.0324H215.628Z" fill="white"/>
<path d="M206.992 75.5728C206.895 75.5728 206.797 75.5554 206.7 75.5206C206.609 75.4788 206.533 75.4336 206.47 75.3848C206.414 75.3291 206.394 75.2839 206.407 75.2491L208.809 69.0458C208.851 68.9274 208.928 68.8404 209.039 68.7847C209.151 68.729 209.321 68.7012 209.551 68.7012C209.788 68.7012 209.958 68.729 210.063 68.7847C210.174 68.8404 210.251 68.9274 210.292 69.0458L212.715 75.2491C212.729 75.2769 212.705 75.3187 212.642 75.3744C212.586 75.4231 212.51 75.4684 212.412 75.5101C212.315 75.5519 212.217 75.5728 212.12 75.5728C211.821 75.5728 211.608 75.4057 211.483 75.0715L210.888 73.5364H208.183L207.588 75.082C207.469 75.4092 207.271 75.5728 206.992 75.5728ZM210.616 72.6696L209.53 69.8082L208.444 72.6696H210.616Z" fill="white"/>
<path d="M202.352 75.5622C202.053 75.5622 201.903 75.3986 201.903 75.0714V69.3694C201.903 69.1884 201.956 69.0422 202.06 68.9308C202.164 68.8194 202.304 68.7637 202.478 68.7637H204.222C205.057 68.7637 205.701 68.9516 206.154 69.3276C206.613 69.6966 206.843 70.2257 206.843 70.915C206.843 71.6251 206.617 72.1647 206.164 72.5337C205.712 72.9027 205.05 73.0872 204.18 73.0872H202.979V75.0714C202.979 75.2245 202.937 75.3464 202.854 75.4369C202.777 75.5204 202.662 75.5622 202.509 75.5622H202.352ZM204.201 72.2204C204.716 72.2204 205.106 72.1125 205.37 71.8966C205.635 71.6738 205.767 71.3536 205.767 70.9359C205.767 70.5112 205.635 70.1909 205.37 69.9751C205.113 69.7593 204.726 69.6513 204.211 69.6513H202.969V72.2204H204.201Z" fill="white"/>
<path d="M194.702 75.5728C194.605 75.5728 194.507 75.5554 194.41 75.5206C194.319 75.4788 194.243 75.4336 194.18 75.3848C194.124 75.3291 194.104 75.2839 194.117 75.2491L196.519 69.0458C196.561 68.9274 196.638 68.8404 196.749 68.7847C196.861 68.729 197.031 68.7012 197.261 68.7012C197.498 68.7012 197.668 68.729 197.773 68.7847C197.884 68.8404 197.961 68.9274 198.002 69.0458L200.425 75.2491C200.439 75.2769 200.415 75.3187 200.352 75.3744C200.296 75.4231 200.22 75.4684 200.122 75.5101C200.025 75.5519 199.927 75.5728 199.83 75.5728C199.531 75.5728 199.318 75.4057 199.193 75.0715L198.598 73.5364H195.893L195.298 75.082C195.179 75.4092 194.981 75.5728 194.702 75.5728ZM198.326 72.6696L197.24 69.8082L196.154 72.6696H198.326Z" fill="white"/>
<path d="M188.227 69.3694C188.227 69.1884 188.279 69.0422 188.383 68.9308C188.495 68.8194 188.634 68.7637 188.801 68.7637H190.451C191.21 68.7637 191.864 68.8994 192.414 69.171C192.964 69.4355 193.386 69.8219 193.678 70.3302C193.97 70.8314 194.117 71.4302 194.117 72.1264C194.117 72.8226 193.967 73.4283 193.667 73.9435C193.375 74.4517 192.947 74.8416 192.383 75.1131C191.826 75.3847 191.165 75.5204 190.399 75.5204H188.822C188.655 75.5204 188.512 75.4613 188.394 75.3429C188.282 75.2245 188.227 75.0853 188.227 74.9252V69.3694ZM190.42 74.591C191.248 74.591 191.889 74.3786 192.341 73.954C192.801 73.5223 193.03 72.9166 193.03 72.1368C193.03 71.371 192.801 70.7723 192.341 70.3406C191.882 69.9089 191.245 69.6931 190.43 69.6931H189.292V74.591H190.42Z" fill="white"/>
<path d="M182.066 75.5728C181.968 75.5728 181.871 75.5554 181.773 75.5206C181.683 75.4788 181.606 75.4336 181.543 75.3848C181.488 75.3291 181.467 75.2839 181.481 75.2491L183.883 69.0458C183.924 68.9274 184.001 68.8404 184.112 68.7847C184.224 68.729 184.394 68.7012 184.624 68.7012C184.861 68.7012 185.031 68.729 185.136 68.7847C185.247 68.8404 185.324 68.9274 185.366 69.0458L187.788 75.2491C187.802 75.2769 187.778 75.3187 187.715 75.3744C187.66 75.4231 187.583 75.4684 187.486 75.5101C187.388 75.5519 187.291 75.5728 187.193 75.5728C186.894 75.5728 186.681 75.4057 186.556 75.0715L185.961 73.5364H183.256L182.661 75.082C182.542 75.4092 182.344 75.5728 182.066 75.5728ZM185.689 72.6696L184.603 69.8082L183.517 72.6696H185.689Z" fill="white"/>
<path d="M175.9 74.9147C175.9 74.7685 175.928 74.6397 175.984 74.5283C176.047 74.4169 176.168 74.2464 176.349 74.0166L179.89 69.7036H176.412C176.092 69.7036 175.932 69.5574 175.932 69.2649V69.2023C175.932 68.9099 176.092 68.7637 176.412 68.7637H180.495C180.732 68.7637 180.906 68.8124 181.018 68.9099C181.129 69.0004 181.185 69.1187 181.185 69.2649V69.3589C181.185 69.5051 181.15 69.6409 181.08 69.7662C181.011 69.8846 180.899 70.0377 180.746 70.2257L177.174 74.5805H180.861C181.181 74.5805 181.341 74.7267 181.341 75.0192V75.0818C181.341 75.3742 181.181 75.5204 180.861 75.5204H176.6C176.363 75.5204 176.186 75.4717 176.067 75.3742C175.956 75.2768 175.9 75.1549 175.9 75.0087V74.9147Z" fill="white"/>
<path d="M173.929 69.2115C173.929 68.8843 174.082 68.7207 174.388 68.7207H174.534C174.848 68.7207 175.004 68.8843 175.004 69.2115V75.0702C175.004 75.3974 174.848 75.561 174.534 75.561H174.388C174.082 75.561 173.929 75.3974 173.929 75.0702V69.2115Z" fill="white"/>
<path d="M167.563 75.561C167.27 75.561 167.124 75.3974 167.124 75.0702V69.3264C167.124 69.1384 167.166 68.9922 167.249 68.8878C167.34 68.7764 167.469 68.7207 167.636 68.7207H167.813C167.966 68.7207 168.085 68.752 168.168 68.8147C168.252 68.8704 168.349 68.9748 168.461 69.128L171.803 73.8692V69.2115C171.803 68.8843 171.952 68.7207 172.252 68.7207H172.377C172.669 68.7207 172.816 68.8843 172.816 69.2115V74.9553C172.816 75.1433 172.77 75.293 172.68 75.4044C172.589 75.5088 172.467 75.561 172.314 75.561H172.231C172.078 75.561 171.966 75.5401 171.897 75.4984C171.827 75.4496 171.747 75.3626 171.656 75.2373L168.137 70.2559V75.0702C168.137 75.3974 167.984 75.561 167.678 75.561H167.563Z" fill="white"/>
<path d="M160.964 75.5728C160.867 75.5728 160.769 75.5554 160.672 75.5206C160.581 75.4788 160.504 75.4336 160.442 75.3848C160.386 75.3291 160.365 75.2839 160.379 75.2491L162.781 69.0458C162.823 68.9274 162.899 68.8404 163.011 68.7847C163.122 68.729 163.293 68.7012 163.523 68.7012C163.759 68.7012 163.93 68.729 164.034 68.7847C164.146 68.8404 164.222 68.9274 164.264 69.0458L166.687 75.2491C166.701 75.2769 166.676 75.3187 166.614 75.3744C166.558 75.4231 166.482 75.4684 166.384 75.5101C166.287 75.5519 166.189 75.5728 166.092 75.5728C165.792 75.5728 165.58 75.4057 165.455 75.0715L164.859 73.5364H162.155L161.559 75.082C161.441 75.4092 161.242 75.5728 160.964 75.5728ZM164.588 72.6696L163.502 69.8082L162.416 72.6696H164.588Z" fill="white"/>
<path d="M153.549 69.316C153.549 69.135 153.605 68.9922 153.716 68.8878C153.827 68.7764 153.977 68.7207 154.165 68.7207H154.447C154.642 68.7207 154.785 68.759 154.875 68.8356C154.966 68.9122 155.056 69.0549 155.147 69.2638L156.744 72.8667L158.353 69.2638C158.443 69.0549 158.534 68.9122 158.624 68.8356C158.715 68.759 158.854 68.7207 159.042 68.7207H159.303C159.498 68.7207 159.651 68.7764 159.763 68.8878C159.881 68.9922 159.94 69.135 159.94 69.316V75.0702C159.94 75.3974 159.79 75.561 159.491 75.561H159.345C159.199 75.561 159.091 75.5227 159.021 75.4461C158.951 75.3626 158.917 75.2373 158.917 75.0702V70.1097L157.423 73.4724C157.354 73.6325 157.274 73.7509 157.183 73.8274C157.093 73.8971 156.943 73.9319 156.734 73.9319C156.518 73.9319 156.368 73.8971 156.285 73.8274C156.201 73.7578 156.121 73.6395 156.045 73.4724L154.572 70.141V75.0702C154.572 75.2373 154.537 75.3626 154.468 75.4461C154.398 75.5227 154.287 75.561 154.134 75.561H153.967C153.688 75.561 153.549 75.3974 153.549 75.0702V69.316Z" fill="white"/>
<path d="M147.091 69.2115C147.091 69.0514 147.129 68.9296 147.206 68.846C147.289 68.7625 147.404 68.7207 147.55 68.7207H147.697C148.01 68.7207 148.166 68.8843 148.166 69.2115V72.7413C148.166 73.3819 148.306 73.8692 148.584 74.2034C148.87 74.5306 149.291 74.6942 149.848 74.6942C150.419 74.6942 150.84 74.5341 151.111 74.2138C151.39 73.8866 151.529 73.3923 151.529 72.7309V69.2115C151.529 68.8843 151.682 68.7207 151.989 68.7207H152.156C152.455 68.7207 152.605 68.8843 152.605 69.2115V72.7518C152.605 73.6917 152.368 74.4088 151.895 74.9031C151.421 75.3974 150.736 75.6446 149.837 75.6446C148.939 75.6446 148.257 75.4009 147.791 74.9135C147.324 74.4262 147.091 73.7126 147.091 72.7727V69.2115Z" fill="white"/>
<path d="M140.892 75.561C140.593 75.561 140.443 75.3974 140.443 75.0702V69.2115C140.443 68.8843 140.593 68.7207 140.892 68.7207H141.049C141.362 68.7207 141.519 68.8843 141.519 69.2115V71.6657H145.08V69.2115C145.08 68.8843 145.23 68.7207 145.529 68.7207H145.686C145.999 68.7207 146.156 68.8843 146.156 69.2115V75.0702C146.156 75.3974 145.999 75.561 145.686 75.561H145.529C145.23 75.561 145.08 75.3974 145.08 75.0702V72.6056H141.519V75.0702C141.519 75.3974 141.362 75.561 141.049 75.561H140.892Z" fill="white"/>
<path d="M133.242 75.5728C133.145 75.5728 133.047 75.5554 132.95 75.5206C132.859 75.4788 132.783 75.4336 132.72 75.3848C132.664 75.3291 132.644 75.2839 132.657 75.2491L135.059 69.0458C135.101 68.9274 135.178 68.8404 135.289 68.7847C135.401 68.729 135.571 68.7012 135.801 68.7012C136.038 68.7012 136.208 68.729 136.313 68.7847C136.424 68.8404 136.501 68.9274 136.542 69.0458L138.965 75.2491C138.979 75.2769 138.955 75.3187 138.892 75.3744C138.836 75.4231 138.76 75.4684 138.662 75.5101C138.565 75.5519 138.467 75.5728 138.37 75.5728C138.071 75.5728 137.858 75.4057 137.733 75.0715L137.138 73.5364H134.433L133.838 75.082C133.719 75.4092 133.521 75.5728 133.242 75.5728ZM136.866 72.6696L135.78 69.8082L134.694 72.6696H136.866Z" fill="white"/>
<path d="M131.052 69.2115C131.052 68.8843 131.205 68.7207 131.511 68.7207H131.657C131.971 68.7207 132.127 68.8843 132.127 69.2115V75.0702C132.127 75.3974 131.971 75.561 131.657 75.561H131.511C131.205 75.561 131.052 75.3974 131.052 75.0702V69.2115Z" fill="white"/>
<path d="M129.486 71.9583C129.674 71.9583 129.817 72.014 129.914 72.1254C130.012 72.2299 130.06 72.3795 130.06 72.5745V75.4568C130.06 75.4777 130.022 75.4986 129.946 75.5195C129.876 75.5473 129.796 75.5612 129.705 75.5612C129.524 75.5612 129.382 75.4986 129.277 75.3733C129.173 75.248 129.121 75.0217 129.121 74.6945V74.5691C128.905 74.9103 128.605 75.1748 128.222 75.3628C127.84 75.5508 127.391 75.6448 126.875 75.6448C126.235 75.6448 125.671 75.4951 125.184 75.1957C124.703 74.8964 124.331 74.4821 124.066 73.953C123.808 73.4239 123.68 72.8251 123.68 72.1568C123.68 71.4745 123.826 70.8653 124.118 70.3292C124.411 69.7931 124.818 69.3754 125.34 69.076C125.869 68.7766 126.472 68.627 127.147 68.627C127.537 68.627 127.892 68.6722 128.212 68.7627C128.532 68.8532 128.807 68.9751 129.037 69.1282C129.246 69.2675 129.41 69.4172 129.528 69.5773C129.646 69.7374 129.705 69.8871 129.705 70.0263C129.705 70.1725 129.664 70.2909 129.58 70.3814C129.497 70.465 129.403 70.5241 129.298 70.5589C129.194 70.5938 129.135 70.6007 129.121 70.5798C128.919 70.2526 128.64 70.002 128.285 69.8279C127.93 69.6469 127.558 69.5564 127.168 69.5564C126.708 69.5564 126.297 69.6678 125.935 69.8906C125.573 70.1064 125.291 70.4127 125.09 70.8096C124.888 71.2064 124.787 71.659 124.787 72.1672C124.787 72.6754 124.877 73.128 125.058 73.5248C125.246 73.9147 125.514 74.221 125.862 74.4438C126.21 74.6666 126.618 74.778 127.084 74.778C127.627 74.778 128.083 74.6388 128.452 74.3603C128.821 74.0818 129.041 73.7163 129.11 73.2637V72.8356H127.523C127.335 72.8356 127.196 72.8042 127.105 72.7416C127.022 72.6789 126.98 72.5745 126.98 72.4283V72.3761C126.98 72.2299 127.022 72.1254 127.105 72.0628C127.196 71.9931 127.335 71.9583 127.523 71.9583H129.486Z" fill="white"/>
<path d="M119.761 75.6552C119.099 75.6552 118.507 75.509 117.985 75.2166C117.47 74.9173 117.066 74.503 116.774 73.9739C116.488 73.4378 116.346 72.8321 116.346 72.1568C116.346 71.4745 116.492 70.8653 116.784 70.3292C117.077 69.7931 117.484 69.3754 118.006 69.076C118.528 68.7766 119.117 68.627 119.771 68.627C120.432 68.627 121.021 68.7766 121.536 69.076C122.058 69.3684 122.462 69.7827 122.747 70.3188C123.04 70.8479 123.186 71.4536 123.186 72.1359C123.186 72.8182 123.04 73.4274 122.747 73.9634C122.455 74.4926 122.048 74.9068 121.526 75.2062C121.01 75.5056 120.422 75.6552 119.761 75.6552ZM119.771 74.7049C120.224 74.7049 120.624 74.597 120.972 74.3812C121.327 74.1653 121.602 73.866 121.797 73.483C121.999 73.0932 122.1 72.6511 122.1 72.1568C122.1 71.6624 121.999 71.2204 121.797 70.8305C121.602 70.4336 121.327 70.1273 120.972 69.9115C120.617 69.6887 120.213 69.5773 119.761 69.5773C119.308 69.5773 118.904 69.6852 118.549 69.901C118.201 70.1169 117.926 70.4197 117.724 70.8096C117.529 71.1925 117.432 71.6346 117.432 72.1359C117.432 72.6302 117.529 73.0723 117.724 73.4622C117.926 73.852 118.205 74.1584 118.56 74.3812C118.915 74.597 119.319 74.7049 119.771 74.7049Z" fill="white"/>
<path d="M112.826 75.5192C112.652 75.5192 112.513 75.467 112.409 75.3626C112.304 75.2512 112.252 75.105 112.252 74.924V69.2115C112.252 68.8843 112.402 68.7207 112.701 68.7207H112.858C113.171 68.7207 113.328 68.8843 113.328 69.2115V74.548H116.262C116.596 74.548 116.763 74.7012 116.763 75.0075V75.0493C116.763 75.2025 116.718 75.3208 116.628 75.4044C116.544 75.4809 116.422 75.5192 116.262 75.5192H112.826Z" fill="white"/>
<path d="M108.072 75.6552C107.411 75.6552 106.819 75.509 106.297 75.2166C105.782 74.9173 105.378 74.503 105.085 73.9739C104.8 73.4378 104.657 72.8321 104.657 72.1568C104.657 71.4745 104.803 70.8653 105.096 70.3292C105.388 69.7931 105.796 69.3754 106.318 69.076C106.84 68.7766 107.428 68.627 108.083 68.627C108.744 68.627 109.332 68.7766 109.848 69.076C110.37 69.3684 110.773 69.7827 111.059 70.3188C111.351 70.8479 111.498 71.4536 111.498 72.1359C111.498 72.8182 111.351 73.4274 111.059 73.9634C110.767 74.4926 110.359 74.9068 109.837 75.2062C109.322 75.5056 108.734 75.6552 108.072 75.6552ZM108.083 74.7049C108.535 74.7049 108.935 74.597 109.284 74.3812C109.639 74.1653 109.914 73.866 110.109 73.483C110.31 73.0932 110.411 72.6511 110.411 72.1568C110.411 71.6624 110.31 71.2204 110.109 70.8305C109.914 70.4336 109.639 70.1273 109.284 69.9115C108.929 69.6887 108.525 69.5773 108.072 69.5773C107.62 69.5773 107.216 69.6852 106.861 69.901C106.513 70.1169 106.238 70.4197 106.036 70.8096C105.841 71.1925 105.743 71.6346 105.743 72.1359C105.743 72.6302 105.841 73.0723 106.036 73.4622C106.238 73.852 106.516 74.1584 106.871 74.3812C107.226 74.597 107.63 74.7049 108.083 74.7049Z" fill="white"/>
<path d="M98.6564 75.561C98.364 75.561 98.2178 75.3974 98.2178 75.0702V69.3264C98.2178 69.1384 98.2595 68.9922 98.3431 68.8878C98.4336 68.7764 98.5624 68.7207 98.7295 68.7207H98.907C99.0602 68.7207 99.1785 68.752 99.2621 68.8147C99.3456 68.8704 99.4431 68.9748 99.5545 69.128L102.896 73.8692V69.2115C102.896 68.8843 103.046 68.7207 103.345 68.7207H103.471C103.763 68.7207 103.909 68.8843 103.909 69.2115V74.9553C103.909 75.1433 103.864 75.293 103.774 75.4044C103.683 75.5088 103.561 75.561 103.408 75.561H103.325C103.171 75.561 103.06 75.5401 102.99 75.4984C102.921 75.4496 102.841 75.3626 102.75 75.2373L99.2308 70.2559V75.0702C99.2308 75.3974 99.0776 75.561 98.7713 75.561H98.6564Z" fill="white"/>
<path d="M91.5117 72.1568C91.5117 71.4745 91.6579 70.8653 91.9503 70.3292C92.2427 69.7931 92.6465 69.3754 93.1617 69.076C93.6839 68.7766 94.2792 68.627 94.9475 68.627C95.7064 68.627 96.3434 68.808 96.8586 69.17C97.0605 69.3092 97.2172 69.4624 97.3286 69.6295C97.44 69.7896 97.4957 69.9324 97.4957 70.0577C97.4957 70.2108 97.4469 70.3327 97.3495 70.4232C97.259 70.5137 97.158 70.5798 97.0466 70.6216C96.9352 70.6564 96.8761 70.6634 96.8691 70.6425C96.6811 70.3083 96.4131 70.0507 96.065 69.8697C95.7169 69.6887 95.3479 69.5982 94.958 69.5982C94.5054 69.5982 94.1016 69.7061 93.7466 69.9219C93.3985 70.1308 93.1235 70.4301 92.9216 70.82C92.7266 71.2029 92.6291 71.6416 92.6291 72.1359C92.6291 72.6232 92.7301 73.0618 92.932 73.4517C93.1339 73.8416 93.4124 74.1445 93.7675 74.3603C94.1295 74.5761 94.5333 74.684 94.9789 74.684C95.4384 74.684 95.8422 74.5796 96.1903 74.3707C96.5453 74.1549 96.7925 73.866 96.9317 73.5039C96.9387 73.483 97.0014 73.49 97.1197 73.5248C97.245 73.5596 97.3564 73.6223 97.4539 73.7128C97.5514 73.8033 97.6001 73.9251 97.6001 74.0783C97.6001 74.2106 97.5409 74.3672 97.4226 74.5483C97.3112 74.7293 97.1476 74.8964 96.9317 75.0495C96.3887 75.4533 95.7169 75.6552 94.9162 75.6552C94.2548 75.6552 93.6665 75.509 93.1513 75.2166C92.6361 74.9173 92.2323 74.503 91.9399 73.9739C91.6544 73.4378 91.5117 72.8321 91.5117 72.1568Z" fill="white"/>
<path d="M86.6359 75.5204C86.4618 75.5204 86.3226 75.4682 86.2182 75.3638C86.1137 75.2524 86.0615 75.1062 86.0615 74.9252V69.3694C86.0615 69.1884 86.1137 69.0422 86.2182 68.9308C86.3226 68.8194 86.4618 68.7637 86.6359 68.7637H90.5521C90.7192 68.7637 90.8445 68.802 90.9281 68.8785C91.0116 68.9551 91.0534 69.0665 91.0534 69.2127V69.2754C91.0534 69.5748 90.8863 69.7244 90.5521 69.7244H87.1372V71.6147H89.7793C90.1135 71.6147 90.2806 71.7574 90.2806 72.0428V72.0742C90.2806 72.3735 90.1135 72.5232 89.7793 72.5232H87.1372V74.5701H90.6148C90.942 74.5701 91.1056 74.7128 91.1056 74.9983V75.0505C91.1056 75.3638 90.942 75.5204 90.6148 75.5204H86.6359Z" fill="white"/>
<path d="M82.1261 69.7244H80.2776C80.1175 69.7244 79.9922 69.6862 79.9017 69.6096C79.8181 69.526 79.7764 69.4112 79.7764 69.2649V69.2127C79.7764 69.0665 79.8181 68.9551 79.9017 68.8785C79.9922 68.802 80.1175 68.7637 80.2776 68.7637H85.0606C85.3879 68.7637 85.5515 68.9134 85.5515 69.2127V69.2649C85.5515 69.4112 85.5097 69.526 85.4261 69.6096C85.3426 69.6862 85.2208 69.7244 85.0606 69.7244H83.2122V75.0714C83.2122 75.3986 83.0521 75.5622 82.7318 75.5622H82.5856C82.2793 75.5622 82.1261 75.3986 82.1261 75.0714V69.7244Z" fill="white"/>
<path d="M307 23.685C307 24.7631 306.608 25.8903 306.02 26.6745L295.385 41.181V52.404C295.385 55.3445 292.983 57.3048 290.533 57.3048H290.141C287.593 57.3048 285.24 55.3445 285.24 52.404V41.181L274.752 26.5765C274.164 25.7923 273.87 24.8122 273.87 23.685C273.87 20.9895 276.026 18.5391 278.82 18.5391C280.388 18.5391 282.055 19.4212 282.937 20.6464L290.386 30.9382C292.346 28.1937 295.777 23.3909 297.737 20.6954C298.717 19.3232 300.237 18.5881 301.854 18.5881C304.549 18.5881 307 21.0385 307 23.685Z" fill="white"/>
<path d="M270.706 52.4038C270.706 55.0012 268.598 57.3046 265.805 57.3046H265.364C262.815 57.3046 260.512 55.0012 260.512 52.4038V41.965H247.329V52.4038C247.329 55.0012 245.123 57.3046 242.477 57.3046H242.036C239.487 57.3046 237.135 55.0012 237.135 52.4038V23.4887C237.135 20.7933 239.487 18.5879 242.036 18.5879H242.477C245.123 18.5879 247.329 20.7933 247.329 23.4887V31.7712H260.512V23.4887C260.512 20.7933 262.815 18.5879 265.364 18.5879H265.805C268.598 18.5879 270.706 20.9403 270.706 23.4887V52.4038Z" fill="white"/>
<path d="M233.928 31.0851C233.928 38.7794 229.272 43.5332 221.822 43.5332H210.746V52.4038C210.746 55.0012 208.639 57.3046 205.846 57.3046H205.454C202.905 57.3046 200.553 55.0012 200.553 52.4038V23.7338C200.553 20.9403 203.101 18.5879 205.699 18.5879H221.822C229.272 18.5879 233.928 23.3907 233.928 31.0851ZM223.783 31.0851C223.783 30.0069 223.489 28.7817 221.822 28.7817H210.746V33.3885H221.822C223.489 33.3885 223.783 32.2123 223.783 31.0851Z" fill="white"/>
<path d="M194.65 42.112C194.65 49.5123 191.857 57.6967 177.792 57.6967C163.726 57.6967 160.933 49.5123 160.933 42.112V23.4887C160.933 20.9403 163.383 18.5879 165.833 18.5879H166.275C168.725 18.5879 171.126 20.9403 171.126 23.4887V42.112C171.126 45.2485 172.548 47.5519 177.792 47.5519C183.035 47.5519 184.457 45.2485 184.457 42.112V23.4887C184.457 20.9403 186.858 18.5879 189.309 18.5879H189.75C192.2 18.5879 194.65 20.9403 194.65 23.4887V42.112Z" fill="white"/>
<path d="M156.994 37.7508C156.994 49.4148 147.633 57.5502 137.047 57.5502C126.461 57.5502 117.101 49.4638 117.101 37.7508C117.101 25.9887 126.461 17.9023 137.047 17.9023C147.633 17.9023 156.994 25.9887 156.994 37.7508ZM146.751 37.7508C146.751 32.6539 142.683 28.0961 137.047 28.0961C131.411 28.0961 127.343 32.6539 127.343 37.7508C127.343 42.7987 131.411 47.4055 137.047 47.4055C142.683 47.4055 146.751 42.7987 146.751 37.7508Z" fill="white"/>
<path d="M114.881 51.7667C114.881 54.4621 112.43 56.8636 109.735 56.8636H86.4066C83.8092 56.8636 81.2607 54.5602 81.2607 51.8157C81.2607 50.5415 81.7508 49.3652 82.486 48.4831L98.8548 28.7817H88.22C85.5245 28.7817 83.0741 26.5273 83.0741 23.7338C83.0741 21.0383 85.5245 18.5879 88.22 18.5879H109.441C112.185 18.5879 114.587 21.0383 114.587 23.6848C114.587 25.057 114.145 26.1352 113.41 27.0174L96.9925 46.7188H109.735C112.43 46.7188 114.881 49.0712 114.881 51.7667Z" fill="white"/>
</svg>
