<svg width="138" height="36" viewBox="0 0 138 36" fill="none" xmlns="http://www.w3.org/2000/svg">
<path d="M8.51241 35.0247H25.5372C30.2383 35.0247 34.0496 31.2134 34.0496 26.5123V9.48751C34.0496 4.78646 30.2383 0.975098 25.5372 0.975098H8.51241C3.81136 0.975098 0 4.78646 0 9.48751V26.5123C0 31.2134 3.81136 35.0247 8.51241 35.0247Z" fill="#F15A38"/>
<path fill-rule="evenodd" clip-rule="evenodd" d="M11.6871 9.01326H22.8037C23.2061 9.01326 23.5906 9.10044 23.9348 9.25692C24.2388 9.3821 24.525 9.56093 24.7753 9.79789C25.8796 10.8396 25.931 12.5966 24.8893 13.7009L13.1781 26.123C12.1364 27.2273 10.3816 27.2787 9.27505 26.237C8.17076 25.1953 8.11935 23.4405 9.16105 22.334L16.2316 14.832C16.2808 14.7784 16.2942 14.7046 16.2652 14.6375C16.2361 14.5705 16.1735 14.5302 16.0997 14.5302H11.6826C10.1647 14.5302 8.92186 13.2873 8.92186 11.7695C8.92186 10.2517 10.1647 9.00879 11.6826 9.00879" fill="white"/>
<path fill-rule="evenodd" clip-rule="evenodd" d="M22.7139 26.9694C21.1 26.9694 19.79 25.6594 19.79 24.0455C19.79 22.4315 21.1 21.1216 22.7139 21.1216H25.6379V24.0164C25.6379 24.0164 25.6379 24.0343 25.6379 24.0455C25.6379 25.6594 24.3279 26.9694 22.7139 26.9694Z" fill="white"/>
<path d="M134.72 34.9408C134.655 34.9408 134.605 34.9204 134.57 34.8798C134.536 34.8359 134.519 34.7734 134.519 34.692V32.157C134.519 32.0757 134.542 32.0099 134.589 31.9599C134.636 31.9098 134.699 31.8848 134.777 31.8848H135.64C136.013 31.8848 136.295 31.9614 136.485 32.1148C136.68 32.2681 136.777 32.495 136.777 32.7955C136.777 33.0239 136.716 33.2133 136.593 33.3635C136.471 33.5106 136.295 33.6092 136.063 33.6592C136.004 33.6717 135.939 33.6811 135.871 33.6874L136.758 34.7436C136.767 34.753 136.761 34.7749 136.739 34.8093C136.717 34.8438 136.683 34.8751 136.636 34.9032C136.592 34.9283 136.539 34.9408 136.476 34.9408C136.414 34.9408 136.359 34.9267 136.312 34.8985C136.265 34.8704 136.215 34.8219 136.162 34.753L135.331 33.7343H134.997V34.7201C134.997 34.789 134.979 34.8438 134.941 34.8845C134.907 34.922 134.855 34.9408 134.786 34.9408H134.72ZM135.631 33.3541C135.85 33.3541 136.014 33.3072 136.124 33.2133C136.234 33.1194 136.288 32.9879 136.288 32.8189C136.288 32.4622 136.065 32.2838 135.617 32.2838H134.993V33.3541H135.631Z" fill="#F15A38"/>
<path d="M131.75 34.9458C131.706 34.9458 131.662 34.938 131.619 34.9223C131.578 34.9036 131.544 34.8832 131.515 34.8613C131.49 34.8363 131.481 34.8159 131.487 34.8003L132.567 32.0118C132.586 31.9586 132.62 31.9195 132.67 31.8945C132.72 31.8695 132.797 31.8569 132.9 31.8569C133.007 31.8569 133.083 31.8695 133.13 31.8945C133.18 31.9195 133.215 31.9586 133.234 32.0118L134.323 34.8003C134.329 34.8128 134.318 34.8316 134.29 34.8566C134.265 34.8785 134.23 34.8989 134.186 34.9176C134.143 34.9364 134.099 34.9458 134.055 34.9458C133.92 34.9458 133.825 34.8707 133.769 34.7205L133.501 34.0304H132.285L132.018 34.7252C131.964 34.8723 131.875 34.9458 131.75 34.9458ZM133.379 33.6408L132.891 32.3545L132.403 33.6408H133.379Z" fill="#F15A38"/>
<path d="M128.839 32.157C128.839 32.0757 128.862 32.0099 128.909 31.9599C128.959 31.9098 129.022 31.8848 129.097 31.8848H129.839C130.18 31.8848 130.474 31.9458 130.721 32.0678C130.969 32.1868 131.158 32.3605 131.289 32.5889C131.421 32.8142 131.486 33.0834 131.486 33.3963C131.486 33.7093 131.419 33.9816 131.285 34.2132C131.153 34.4416 130.961 34.6169 130.707 34.7389C130.457 34.861 130.16 34.922 129.815 34.922H129.106C129.031 34.922 128.967 34.8954 128.914 34.8422C128.864 34.789 128.839 34.7264 128.839 34.6544V32.157ZM129.825 34.5042C130.197 34.5042 130.485 34.4088 130.688 34.2179C130.895 34.0238 130.998 33.7516 130.998 33.401C130.998 33.0568 130.895 32.7876 130.688 32.5936C130.482 32.3996 130.196 32.3026 129.829 32.3026H129.318V34.5042H129.825Z" fill="#F15A38"/>
<path d="M127.854 32.0864C127.854 31.9393 127.922 31.8657 128.06 31.8657H128.126C128.267 31.8657 128.337 31.9393 128.337 32.0864V34.7199C128.337 34.867 128.267 34.9405 128.126 34.9405H128.06C127.922 34.9405 127.854 34.867 127.854 34.7199V32.0864Z" fill="#F15A38"/>
<path d="M124.908 32.0864C124.908 32.0144 124.925 31.9596 124.96 31.9221C124.997 31.8845 125.049 31.8657 125.115 31.8657H125.18C125.321 31.8657 125.392 31.9393 125.392 32.0864V33.673C125.392 33.961 125.454 34.18 125.579 34.3303C125.708 34.4773 125.897 34.5509 126.148 34.5509C126.404 34.5509 126.593 34.4789 126.716 34.3349C126.841 34.1879 126.903 33.9657 126.903 33.6684V32.0864C126.903 31.9393 126.972 31.8657 127.11 31.8657H127.185C127.32 31.8657 127.387 31.9393 127.387 32.0864V33.6777C127.387 34.1002 127.28 34.4226 127.068 34.6448C126.855 34.867 126.547 34.9781 126.143 34.9781C125.739 34.9781 125.432 34.8685 125.223 34.6495C125.013 34.4304 124.908 34.1096 124.908 33.6871V32.0864Z" fill="#F15A38"/>
<path d="M121.931 33.4104C121.931 33.1037 121.996 32.8299 122.128 32.5889C122.259 32.3479 122.441 32.1602 122.672 32.0256C122.907 31.891 123.175 31.8237 123.475 31.8237C123.816 31.8237 124.103 31.9051 124.334 32.0678C124.425 32.1304 124.495 32.1993 124.545 32.2744C124.595 32.3464 124.621 32.4105 124.621 32.4669C124.621 32.5357 124.599 32.5905 124.555 32.6312C124.514 32.6718 124.469 32.7016 124.419 32.7204C124.369 32.736 124.342 32.7391 124.339 32.7297C124.254 32.5795 124.134 32.4637 123.977 32.3824C123.821 32.301 123.655 32.2603 123.48 32.2603C123.276 32.2603 123.095 32.3088 122.935 32.4058C122.779 32.4997 122.655 32.6343 122.564 32.8095C122.477 32.9817 122.433 33.1788 122.433 33.401C122.433 33.6201 122.478 33.8173 122.569 33.9925C122.66 34.1678 122.785 34.3039 122.945 34.4009C123.107 34.4979 123.289 34.5465 123.489 34.5465C123.696 34.5465 123.877 34.4995 124.034 34.4056C124.193 34.3086 124.304 34.1787 124.367 34.016C124.37 34.0066 124.398 34.0097 124.452 34.0254C124.508 34.041 124.558 34.0692 124.602 34.1099C124.646 34.1506 124.667 34.2053 124.667 34.2742C124.667 34.3336 124.641 34.4041 124.588 34.4854C124.538 34.5668 124.464 34.6419 124.367 34.7108C124.123 34.8923 123.821 34.983 123.461 34.983C123.164 34.983 122.899 34.9173 122.668 34.7859C122.436 34.6513 122.255 34.4651 122.123 34.2272C121.995 33.9863 121.931 33.714 121.931 33.4104Z" fill="#F15A38"/>
<path d="M119.129 34.922C119.051 34.922 118.988 34.8985 118.942 34.8516C118.895 34.8015 118.871 34.7358 118.871 34.6544V32.157C118.871 32.0757 118.895 32.0099 118.942 31.9599C118.988 31.9098 119.051 31.8848 119.129 31.8848H120.89C120.965 31.8848 121.021 31.902 121.059 31.9364C121.096 31.9708 121.115 32.0209 121.115 32.0866V32.1148C121.115 32.2494 121.04 32.3166 120.89 32.3166H119.355V33.1663H120.542C120.692 33.1663 120.768 33.2305 120.768 33.3588V33.3729C120.768 33.5074 120.692 33.5747 120.542 33.5747H119.355V34.4948H120.918C121.065 34.4948 121.138 34.559 121.138 34.6873V34.7108C121.138 34.8516 121.065 34.922 120.918 34.922H119.129Z" fill="#F15A38"/>
<path d="M115.886 34.9408C115.821 34.9408 115.771 34.9204 115.736 34.8798C115.702 34.8359 115.685 34.7734 115.685 34.692V32.157C115.685 32.0757 115.708 32.0099 115.755 31.9599C115.802 31.9098 115.865 31.8848 115.943 31.8848H116.807C117.179 31.8848 117.461 31.9614 117.651 32.1148C117.846 32.2681 117.943 32.495 117.943 32.7955C117.943 33.0239 117.882 33.2133 117.759 33.3635C117.637 33.5106 117.461 33.6092 117.229 33.6592C117.17 33.6717 117.105 33.6811 117.037 33.6874L117.924 34.7436C117.933 34.753 117.927 34.7749 117.905 34.8093C117.883 34.8438 117.849 34.8751 117.802 34.9032C117.758 34.9283 117.705 34.9408 117.642 34.9408C117.58 34.9408 117.525 34.9267 117.478 34.8985C117.431 34.8704 117.381 34.8219 117.328 34.753L116.497 33.7343H116.163V34.7201C116.163 34.789 116.145 34.8438 116.107 34.8845C116.073 34.922 116.021 34.9408 115.952 34.9408H115.886ZM116.797 33.3541C117.016 33.3541 117.181 33.3072 117.29 33.2133C117.4 33.1194 117.454 32.9879 117.454 32.8189C117.454 32.4622 117.231 32.2838 116.783 32.2838H116.159V33.3541H116.797Z" fill="#F15A38"/>
<path d="M112.915 34.9458C112.871 34.9458 112.828 34.938 112.784 34.9223C112.743 34.9036 112.709 34.8832 112.68 34.8613C112.655 34.8363 112.646 34.8159 112.652 34.8003L113.732 32.0118C113.751 31.9586 113.785 31.9195 113.835 31.8945C113.885 31.8695 113.962 31.8569 114.065 31.8569C114.172 31.8569 114.248 31.8695 114.295 31.8945C114.345 31.9195 114.38 31.9586 114.399 32.0118L115.488 34.8003C115.494 34.8128 115.483 34.8316 115.455 34.8566C115.43 34.8785 115.395 34.8989 115.352 34.9176C115.308 34.9364 115.264 34.9458 115.22 34.9458C115.086 34.9458 114.99 34.8707 114.934 34.7205L114.666 34.0304H113.45L113.183 34.7252C113.13 34.8723 113.04 34.9458 112.915 34.9458ZM114.544 33.6408L114.056 32.3545L113.568 33.6408H114.544Z" fill="#F15A38"/>
<path d="M109.9 33.4104C109.9 33.1037 109.966 32.8299 110.098 32.5889C110.229 32.3479 110.411 32.1602 110.642 32.0256C110.877 31.891 111.144 31.8237 111.445 31.8237C111.786 31.8237 112.072 31.9051 112.304 32.0678C112.395 32.1304 112.465 32.1993 112.515 32.2744C112.565 32.3464 112.59 32.4105 112.59 32.4669C112.59 32.5357 112.568 32.5905 112.525 32.6312C112.484 32.6718 112.438 32.7016 112.388 32.7204C112.338 32.736 112.312 32.7391 112.309 32.7297C112.224 32.5795 112.104 32.4637 111.947 32.3824C111.791 32.301 111.625 32.2603 111.45 32.2603C111.246 32.2603 111.065 32.3088 110.905 32.4058C110.748 32.4997 110.625 32.6343 110.534 32.8095C110.446 32.9817 110.403 33.1788 110.403 33.401C110.403 33.6201 110.448 33.8173 110.539 33.9925C110.63 34.1678 110.755 34.3039 110.914 34.4009C111.077 34.4979 111.259 34.5465 111.459 34.5465C111.665 34.5465 111.847 34.4995 112.003 34.4056C112.163 34.3086 112.274 34.1787 112.337 34.016C112.34 34.0066 112.368 34.0097 112.421 34.0254C112.478 34.041 112.528 34.0692 112.571 34.1099C112.615 34.1506 112.637 34.2053 112.637 34.2742C112.637 34.3336 112.611 34.4041 112.557 34.4854C112.507 34.5668 112.434 34.6419 112.337 34.7108C112.093 34.8923 111.791 34.983 111.431 34.983C111.133 34.983 110.869 34.9173 110.637 34.7859C110.406 34.6513 110.224 34.4651 110.093 34.2272C109.965 33.9863 109.9 33.714 109.9 33.4104Z" fill="#F15A38"/>
<path d="M107.115 32.0864C107.115 32.0144 107.132 31.9596 107.167 31.9221C107.204 31.8845 107.256 31.8657 107.322 31.8657H107.388C107.528 31.8657 107.599 31.9393 107.599 32.0864V33.673C107.599 33.961 107.661 34.18 107.787 34.3303C107.915 34.4773 108.104 34.5509 108.355 34.5509C108.611 34.5509 108.801 34.4789 108.923 34.3349C109.048 34.1879 109.11 33.9657 109.11 33.6684V32.0864C109.11 31.9393 109.179 31.8657 109.317 31.8657H109.392C109.527 31.8657 109.594 31.9393 109.594 32.0864V33.6777C109.594 34.1002 109.487 34.4226 109.275 34.6448C109.062 34.867 108.754 34.9781 108.35 34.9781C107.946 34.9781 107.639 34.8685 107.43 34.6495C107.22 34.4304 107.115 34.1096 107.115 33.6871V32.0864Z" fill="#F15A38"/>
<path d="M104.163 32.157C104.163 32.0757 104.187 32.0099 104.234 31.9599C104.284 31.9098 104.346 31.8848 104.421 31.8848H105.163C105.504 31.8848 105.798 31.9458 106.046 32.0678C106.293 32.1868 106.482 32.3605 106.614 32.5889C106.745 32.8142 106.811 33.0834 106.811 33.3963C106.811 33.7093 106.743 33.9816 106.609 34.2132C106.477 34.4416 106.285 34.6169 106.031 34.7389C105.781 34.861 105.484 34.922 105.14 34.922H104.431C104.356 34.922 104.291 34.8954 104.238 34.8422C104.188 34.789 104.163 34.7264 104.163 34.6544V32.157ZM105.149 34.5042C105.521 34.5042 105.809 34.4088 106.013 34.2179C106.219 34.0238 106.322 33.7516 106.322 33.401C106.322 33.0568 106.219 32.7876 106.013 32.5936C105.806 32.3996 105.52 32.3026 105.154 32.3026H104.642V34.5042H105.149Z" fill="#F15A38"/>
<path d="M101.854 34.922C101.776 34.922 101.713 34.8985 101.666 34.8516C101.619 34.8015 101.596 34.7358 101.596 34.6544V32.157C101.596 32.0757 101.619 32.0099 101.666 31.9599C101.713 31.9098 101.776 31.8848 101.854 31.8848H103.614C103.689 31.8848 103.746 31.902 103.783 31.9364C103.821 31.9708 103.84 32.0209 103.84 32.0866V32.1148C103.84 32.2494 103.764 32.3166 103.614 32.3166H102.079V33.1663H103.267C103.417 33.1663 103.492 33.2305 103.492 33.3588V33.3729C103.492 33.5074 103.417 33.5747 103.267 33.5747H102.079V34.4948H103.642C103.79 34.4948 103.863 34.559 103.863 34.6873V34.7108C103.863 34.8516 103.79 34.922 103.642 34.922H101.854Z" fill="#F15A38"/>
<path d="M98.3595 34.9458C98.3157 34.9458 98.2719 34.938 98.228 34.9223C98.1874 34.9036 98.1529 34.8832 98.1248 34.8613C98.0997 34.8363 98.0903 34.8159 98.0966 34.8003L99.1763 32.0118C99.1951 31.9586 99.2295 31.9195 99.2796 31.8945C99.3297 31.8695 99.4063 31.8569 99.5096 31.8569C99.616 31.8569 99.6927 31.8695 99.7396 31.8945C99.7897 31.9195 99.8241 31.9586 99.8429 32.0118L100.932 34.8003C100.938 34.8128 100.927 34.8316 100.899 34.8566C100.874 34.8785 100.84 34.8989 100.796 34.9176C100.752 34.9364 100.708 34.9458 100.664 34.9458C100.53 34.9458 100.434 34.8707 100.378 34.7205L100.11 34.0304H98.8946L98.6271 34.7252C98.5739 34.8723 98.4847 34.9458 98.3595 34.9458ZM99.9884 33.6408L99.5002 32.3545L99.012 33.6408H99.9884Z" fill="#F15A38"/>
<path d="M96.0163 34.9408C95.9506 34.9408 95.9005 34.9204 95.8661 34.8798C95.8317 34.8359 95.8145 34.7734 95.8145 34.692V32.157C95.8145 32.0757 95.8379 32.0099 95.8849 31.9599C95.9318 31.9098 95.9944 31.8848 96.0726 31.8848H96.9364C97.3088 31.8848 97.5905 31.9614 97.7814 32.1148C97.9754 32.2681 98.0724 32.495 98.0724 32.7955C98.0724 33.0239 98.0114 33.2133 97.8893 33.3635C97.7673 33.5106 97.5905 33.6092 97.3589 33.6592C97.2994 33.6717 97.2353 33.6811 97.1664 33.6874L98.0537 34.7436C98.063 34.753 98.0568 34.7749 98.0349 34.8093C98.013 34.8438 97.9785 34.8751 97.9316 34.9032C97.8878 34.9283 97.8346 34.9408 97.772 34.9408C97.7094 34.9408 97.6546 34.9267 97.6077 34.8985C97.5608 34.8704 97.5107 34.8219 97.4575 34.753L96.6266 33.7343H96.2933V34.7201C96.2933 34.789 96.2745 34.8438 96.2369 34.8845C96.2025 34.922 96.1509 34.9408 96.082 34.9408H96.0163ZM96.927 33.3541C97.1461 33.3541 97.3104 33.3072 97.4199 33.2133C97.5295 33.1194 97.5842 32.9879 97.5842 32.8189C97.5842 32.4622 97.3605 32.2838 96.9129 32.2838H96.2886V33.3541H96.927Z" fill="#F15A38"/>
<path d="M93.045 34.9458C93.0012 34.9458 92.9574 34.938 92.9136 34.9223C92.8729 34.9036 92.8385 34.8832 92.8103 34.8613C92.7853 34.8363 92.7759 34.8159 92.7822 34.8003L93.8619 32.0118C93.8806 31.9586 93.9151 31.9195 93.9651 31.8945C94.0152 31.8695 94.0919 31.8569 94.1952 31.8569C94.3016 31.8569 94.3782 31.8695 94.4252 31.8945C94.4752 31.9195 94.5097 31.9586 94.5285 32.0118L95.6175 34.8003C95.6238 34.8128 95.6128 34.8316 95.5847 34.8566C95.5596 34.8785 95.5252 34.8989 95.4814 34.9176C95.4376 34.9364 95.3938 34.9458 95.35 34.9458C95.2154 34.9458 95.1199 34.8707 95.0636 34.7205L94.796 34.0304H93.5802L93.3126 34.7252C93.2594 34.8723 93.1702 34.9458 93.045 34.9458ZM94.674 33.6408L94.1858 32.3545L93.6975 33.6408H94.674Z" fill="#F15A38"/>
<path d="M90.9597 34.9408C90.8251 34.9408 90.7578 34.8672 90.7578 34.7201V32.157C90.7578 32.0757 90.7813 32.0099 90.8282 31.9599C90.8752 31.9098 90.9378 31.8848 91.016 31.8848H91.8C92.1755 31.8848 92.465 31.9693 92.6684 32.1383C92.875 32.3041 92.9782 32.542 92.9782 32.8518C92.9782 33.171 92.8765 33.4136 92.6731 33.5794C92.4697 33.7453 92.1724 33.8282 91.7812 33.8282H91.2413V34.7201C91.2413 34.789 91.2226 34.8438 91.185 34.8845C91.1506 34.922 91.0989 34.9408 91.0301 34.9408H90.9597ZM91.7906 33.4386C92.0222 33.4386 92.1974 33.3901 92.3163 33.2931C92.4353 33.1929 92.4947 33.049 92.4947 32.8612C92.4947 32.6703 92.4353 32.5263 92.3163 32.4293C92.2005 32.3323 92.0268 32.2838 91.7953 32.2838H91.2366V33.4386H91.7906Z" fill="#F15A38"/>
<path d="M87.5206 34.9458C87.4768 34.9458 87.433 34.938 87.3892 34.9223C87.3485 34.9036 87.3141 34.8832 87.2859 34.8613C87.2609 34.8363 87.2515 34.8159 87.2577 34.8003L88.3374 32.0118C88.3562 31.9586 88.3906 31.9195 88.4407 31.8945C88.4908 31.8695 88.5675 31.8569 88.6707 31.8569C88.7771 31.8569 88.8538 31.8695 88.9008 31.8945C88.9508 31.9195 88.9853 31.9586 89.004 32.0118L90.0931 34.8003C90.0994 34.8128 90.0884 34.8316 90.0603 34.8566C90.0352 34.8785 90.0008 34.8989 89.957 34.9176C89.9132 34.9364 89.8694 34.9458 89.8255 34.9458C89.691 34.9458 89.5955 34.8707 89.5392 34.7205L89.2716 34.0304H88.0558L87.7882 34.7252C87.735 34.8723 87.6458 34.9458 87.5206 34.9458ZM89.1496 33.6408L88.6613 32.3545L88.1731 33.6408H89.1496Z" fill="#F15A38"/>
<path d="M84.6094 32.157C84.6094 32.0757 84.6328 32.0099 84.6798 31.9599C84.7299 31.9098 84.7925 31.8848 84.8676 31.8848H85.6093C85.9504 31.8848 86.2446 31.9458 86.4918 32.0678C86.739 32.1868 86.9284 32.3605 87.0598 32.5889C87.1913 32.8142 87.257 33.0834 87.257 33.3963C87.257 33.7093 87.1897 33.9816 87.0551 34.2132C86.9237 34.4416 86.7312 34.6169 86.4777 34.7389C86.2274 34.861 85.93 34.922 85.5858 34.922H84.877C84.8018 34.922 84.7377 34.8954 84.6845 34.8422C84.6344 34.789 84.6094 34.7264 84.6094 34.6544V32.157ZM85.5952 34.5042C85.9676 34.5042 86.2555 34.4088 86.4589 34.2179C86.6655 34.0238 86.7688 33.7516 86.7688 33.401C86.7688 33.0568 86.6655 32.7876 86.4589 32.5936C86.2524 32.3996 85.966 32.3026 85.5999 32.3026H85.0882V34.5042H85.5952Z" fill="#F15A38"/>
<path d="M81.8409 34.9458C81.7971 34.9458 81.7533 34.938 81.7095 34.9223C81.6688 34.9036 81.6344 34.8832 81.6062 34.8613C81.5812 34.8363 81.5718 34.8159 81.578 34.8003L82.6577 32.0118C82.6765 31.9586 82.711 31.9195 82.761 31.8945C82.8111 31.8695 82.8878 31.8569 82.991 31.8569C83.0975 31.8569 83.1741 31.8695 83.2211 31.8945C83.2711 31.9195 83.3056 31.9586 83.3243 32.0118L84.4134 34.8003C84.4197 34.8128 84.4087 34.8316 84.3806 34.8566C84.3555 34.8785 84.3211 34.8989 84.2773 34.9176C84.2335 34.9364 84.1897 34.9458 84.1459 34.9458C84.0113 34.9458 83.9158 34.8707 83.8595 34.7205L83.5919 34.0304H82.3761L82.1085 34.7252C82.0553 34.8723 81.9661 34.9458 81.8409 34.9458ZM83.4699 33.6408L82.9817 32.3545L82.4934 33.6408H83.4699Z" fill="#F15A38"/>
<path d="M79.0693 34.6497C79.0693 34.584 79.0819 34.5261 79.1069 34.476C79.1351 34.426 79.1898 34.3493 79.2712 34.246L80.8626 32.3073H79.2994C79.1554 32.3073 79.0834 32.2415 79.0834 32.1101V32.0819C79.0834 31.9505 79.1554 31.8848 79.2994 31.8848H81.1348C81.2413 31.8848 81.3195 31.9067 81.3696 31.9505C81.4196 31.9912 81.4447 32.0444 81.4447 32.1101V32.1523C81.4447 32.2181 81.429 32.2791 81.3977 32.3354C81.3664 32.3886 81.3164 32.4575 81.2475 32.542L79.642 34.4995H81.2992C81.4431 34.4995 81.5151 34.5652 81.5151 34.6967V34.7248C81.5151 34.8563 81.4431 34.922 81.2992 34.922H79.3839C79.2775 34.922 79.1976 34.9001 79.1444 34.8563C79.0944 34.8125 79.0693 34.7577 79.0693 34.692V34.6497Z" fill="#F15A38"/>
<path d="M78.1826 32.0864C78.1826 31.9393 78.2515 31.8657 78.3892 31.8657H78.4549C78.5957 31.8657 78.6661 31.9393 78.6661 32.0864V34.7199C78.6661 34.867 78.5957 34.9405 78.4549 34.9405H78.3892C78.2515 34.9405 78.1826 34.867 78.1826 34.7199V32.0864Z" fill="#F15A38"/>
<path d="M75.3212 34.9405C75.1897 34.9405 75.124 34.867 75.124 34.7199V32.138C75.124 32.0535 75.1428 31.9878 75.1804 31.9408C75.221 31.8908 75.2789 31.8657 75.354 31.8657H75.4339C75.5027 31.8657 75.5559 31.8798 75.5935 31.908C75.631 31.933 75.6748 31.98 75.7249 32.0488L77.2271 34.18V32.0864C77.2271 31.9393 77.2944 31.8657 77.4289 31.8657H77.4853C77.6167 31.8657 77.6824 31.9393 77.6824 32.0864V34.6682C77.6824 34.7527 77.6621 34.82 77.6214 34.8701C77.5807 34.917 77.526 34.9405 77.4571 34.9405H77.4196C77.3507 34.9405 77.3006 34.9311 77.2693 34.9124C77.238 34.8904 77.2021 34.8513 77.1614 34.795L75.5794 32.5558V34.7199C75.5794 34.867 75.5105 34.9405 75.3728 34.9405H75.3212Z" fill="#F15A38"/>
<path d="M72.3546 34.9458C72.3108 34.9458 72.267 34.938 72.2232 34.9223C72.1825 34.9036 72.1481 34.8832 72.1199 34.8613C72.0949 34.8363 72.0855 34.8159 72.0917 34.8003L73.1714 32.0118C73.1902 31.9586 73.2246 31.9195 73.2747 31.8945C73.3248 31.8695 73.4014 31.8569 73.5047 31.8569C73.6111 31.8569 73.6878 31.8695 73.7347 31.8945C73.7848 31.9195 73.8192 31.9586 73.838 32.0118L74.9271 34.8003C74.9334 34.8128 74.9224 34.8316 74.8942 34.8566C74.8692 34.8785 74.8348 34.8989 74.791 34.9176C74.7472 34.9364 74.7033 34.9458 74.6595 34.9458C74.525 34.9458 74.4295 34.8707 74.3732 34.7205L74.1056 34.0304H72.8898L72.6222 34.7252C72.569 34.8723 72.4798 34.9458 72.3546 34.9458ZM73.9835 33.6408L73.4953 32.3545L73.0071 33.6408H73.9835Z" fill="#F15A38"/>
<path d="M69.0215 32.1333C69.0215 32.0519 69.0465 31.9878 69.0966 31.9408C69.1467 31.8908 69.214 31.8657 69.2985 31.8657H69.4252C69.5128 31.8657 69.577 31.8829 69.6177 31.9174C69.6583 31.9518 69.699 32.0159 69.7397 32.1098L70.458 33.7294L71.1809 32.1098C71.2216 32.0159 71.2623 31.9518 71.3029 31.9174C71.3436 31.8829 71.4062 31.8657 71.4907 31.8657H71.6081C71.6957 31.8657 71.7645 31.8908 71.8146 31.9408C71.8678 31.9878 71.8944 32.0519 71.8944 32.1333V34.7199C71.8944 34.867 71.8271 34.9405 71.6926 34.9405H71.6268C71.5611 34.9405 71.5126 34.9233 71.4813 34.8889C71.45 34.8513 71.4344 34.795 71.4344 34.7199V32.4901L70.7631 34.0016C70.7318 34.0736 70.6958 34.1268 70.6551 34.1613C70.6144 34.1926 70.5471 34.2082 70.4533 34.2082C70.3562 34.2082 70.289 34.1926 70.2514 34.1613C70.2138 34.13 70.1779 34.0768 70.1434 34.0016L69.4815 32.5042V34.7199C69.4815 34.795 69.4659 34.8513 69.4346 34.8889C69.4033 34.9233 69.3532 34.9405 69.2844 34.9405H69.2093C69.0841 34.9405 69.0215 34.867 69.0215 34.7199V32.1333Z" fill="#F15A38"/>
<path d="M66.1191 32.0864C66.1191 32.0144 66.1364 31.9596 66.1708 31.9221C66.2083 31.8845 66.26 31.8657 66.3257 31.8657H66.3914C66.5322 31.8657 66.6027 31.9393 66.6027 32.0864V33.673C66.6027 33.961 66.6652 34.18 66.7904 34.3303C66.9187 34.4773 67.1081 34.5509 67.3584 34.5509C67.6151 34.5509 67.8044 34.4789 67.9265 34.3349C68.0516 34.1879 68.1142 33.9657 68.1142 33.6684V32.0864C68.1142 31.9393 68.1831 31.8657 68.3208 31.8657H68.3959C68.5305 31.8657 68.5978 31.9393 68.5978 32.0864V33.6777C68.5978 34.1002 68.4913 34.4226 68.2785 34.6448C68.0657 34.867 67.7575 34.9781 67.3538 34.9781C66.95 34.9781 66.6433 34.8685 66.4337 34.6495C66.224 34.4304 66.1191 34.1096 66.1191 33.6871V32.0864Z" fill="#F15A38"/>
<path d="M63.3327 34.9405C63.1981 34.9405 63.1309 34.867 63.1309 34.7199V32.0864C63.1309 31.9393 63.1981 31.8657 63.3327 31.8657H63.4031C63.544 31.8657 63.6144 31.9393 63.6144 32.0864V33.1895H65.2151V32.0864C65.2151 31.9393 65.2824 31.8657 65.417 31.8657H65.4874C65.6283 31.8657 65.6987 31.9393 65.6987 32.0864V34.7199C65.6987 34.867 65.6283 34.9405 65.4874 34.9405H65.417C65.2824 34.9405 65.2151 34.867 65.2151 34.7199V33.612H63.6144V34.7199C63.6144 34.867 63.544 34.9405 63.4031 34.9405H63.3327Z" fill="#F15A38"/>
<path d="M59.8937 34.9458C59.8499 34.9458 59.806 34.938 59.7622 34.9223C59.7215 34.9036 59.6871 34.8832 59.6589 34.8613C59.6339 34.8363 59.6245 34.8159 59.6308 34.8003L60.7105 32.0118C60.7293 31.9586 60.7637 31.9195 60.8138 31.8945C60.8638 31.8695 60.9405 31.8569 61.0438 31.8569C61.1502 31.8569 61.2269 31.8695 61.2738 31.8945C61.3239 31.9195 61.3583 31.9586 61.3771 32.0118L62.4662 34.8003C62.4724 34.8128 62.4615 34.8316 62.4333 34.8566C62.4083 34.8785 62.3738 34.8989 62.33 34.9176C62.2862 34.9364 62.2424 34.9458 62.1986 34.9458C62.064 34.9458 61.9686 34.8707 61.9122 34.7205L61.6447 34.0304H60.4288L60.1612 34.7252C60.108 34.8723 60.0188 34.9458 59.8937 34.9458ZM61.5226 33.6408L61.0344 32.3545L60.5462 33.6408H61.5226Z" fill="#F15A38"/>
<path d="M58.9092 32.0864C58.9092 31.9393 58.978 31.8657 59.1157 31.8657H59.1815C59.3223 31.8657 59.3927 31.9393 59.3927 32.0864V34.7199C59.3927 34.867 59.3223 34.9405 59.1815 34.9405H59.1157C58.978 34.9405 58.9092 34.867 58.9092 34.7199V32.0864Z" fill="#F15A38"/>
<path d="M58.2048 33.3212C58.2893 33.3212 58.3534 33.3463 58.3972 33.3963C58.4411 33.4433 58.463 33.5106 58.463 33.5982V34.8938C58.463 34.9032 58.4458 34.9126 58.4113 34.922C58.38 34.9345 58.344 34.9408 58.3034 34.9408C58.222 34.9408 58.1578 34.9126 58.1109 34.8563C58.064 34.7999 58.0405 34.6982 58.0405 34.5511V34.4948C57.9435 34.6482 57.8089 34.7671 57.6368 34.8516C57.4646 34.9361 57.2628 34.9783 57.0312 34.9783C56.7433 34.9783 56.4898 34.911 56.2707 34.7765C56.0548 34.6419 55.8873 34.4557 55.7684 34.2178C55.6526 33.98 55.5947 33.7109 55.5947 33.4104C55.5947 33.1037 55.6604 32.8299 55.7919 32.5889C55.9233 32.3479 56.1064 32.1602 56.3411 32.0256C56.579 31.891 56.8497 31.8237 57.1532 31.8237C57.3285 31.8237 57.4881 31.8441 57.6321 31.8848C57.776 31.9254 57.8996 31.9802 58.0029 32.0491C58.0968 32.1117 58.1704 32.1789 58.2236 32.2509C58.2768 32.3229 58.3034 32.3902 58.3034 32.4528C58.3034 32.5185 58.2846 32.5717 58.247 32.6124C58.2095 32.6499 58.1672 32.6765 58.1203 32.6922C58.0733 32.7078 58.0467 32.711 58.0405 32.7016C57.9497 32.5545 57.8245 32.4418 57.6649 32.3636C57.5053 32.2822 57.3379 32.2415 57.1626 32.2415C56.9561 32.2415 56.7714 32.2916 56.6087 32.3917C56.446 32.4888 56.3192 32.6265 56.2285 32.8048C56.1377 32.9832 56.0923 33.1867 56.0923 33.4151C56.0923 33.6436 56.133 33.847 56.2144 34.0254C56.2989 34.2006 56.4194 34.3383 56.5758 34.4385C56.7323 34.5386 56.9154 34.5887 57.1251 34.5887C57.3692 34.5887 57.5742 34.5261 57.74 34.4009C57.9059 34.2757 58.0045 34.1114 58.0358 33.908V33.7156H57.3222C57.2377 33.7156 57.1752 33.7015 57.1345 33.6733C57.0969 33.6451 57.0781 33.5982 57.0781 33.5325V33.509C57.0781 33.4433 57.0969 33.3963 57.1345 33.3682C57.1752 33.3369 57.2377 33.3212 57.3222 33.3212H58.2048Z" fill="#F15A38"/>
<path d="M53.8339 34.983C53.5366 34.983 53.2706 34.9173 53.0358 34.7859C52.8043 34.6513 52.6227 34.4651 52.4913 34.2272C52.363 33.9863 52.2988 33.714 52.2988 33.4104C52.2988 33.1037 52.3645 32.8299 52.496 32.5889C52.6274 32.3479 52.8105 32.1602 53.0452 32.0256C53.2799 31.891 53.5444 31.8237 53.8386 31.8237C54.1359 31.8237 54.4003 31.891 54.6319 32.0256C54.8666 32.157 55.0481 32.3432 55.1765 32.5842C55.3079 32.8221 55.3736 33.0943 55.3736 33.401C55.3736 33.7077 55.3079 33.9816 55.1765 34.2225C55.045 34.4604 54.8619 34.6466 54.6272 34.7812C54.3956 34.9157 54.1312 34.983 53.8339 34.983ZM53.8386 34.5558C54.042 34.5558 54.2219 34.5073 54.3784 34.4103C54.538 34.3133 54.6616 34.1787 54.7493 34.0066C54.84 33.8313 54.8854 33.6326 54.8854 33.4104C54.8854 33.1882 54.84 32.9895 54.7493 32.8142C54.6616 32.6359 54.538 32.4982 54.3784 32.4011C54.2188 32.301 54.0373 32.2509 53.8339 32.2509C53.6305 32.2509 53.4489 32.2994 53.2893 32.3964C53.1329 32.4935 53.0092 32.6296 52.9185 32.8048C52.8309 32.977 52.787 33.1757 52.787 33.401C52.787 33.6232 52.8309 33.822 52.9185 33.9972C53.0092 34.1725 53.1344 34.3102 53.294 34.4103C53.4536 34.5073 53.6352 34.5558 53.8386 34.5558Z" fill="#F15A38"/>
<path d="M50.7172 34.9217C50.6389 34.9217 50.5763 34.8983 50.5294 34.8513C50.4825 34.8013 50.459 34.7355 50.459 34.6542V32.0864C50.459 31.9393 50.5263 31.8657 50.6608 31.8657H50.7313C50.8721 31.8657 50.9425 31.9393 50.9425 32.0864V34.4852H52.2616C52.4118 34.4852 52.4869 34.554 52.4869 34.6917V34.7105C52.4869 34.7793 52.4666 34.8325 52.4259 34.8701C52.3884 34.9045 52.3336 34.9217 52.2616 34.9217H50.7172Z" fill="#F15A38"/>
<path d="M48.58 34.983C48.2827 34.983 48.0167 34.9173 47.7819 34.7859C47.5503 34.6513 47.3688 34.4651 47.2374 34.2272C47.1091 33.9863 47.0449 33.714 47.0449 33.4104C47.0449 33.1037 47.1106 32.8299 47.2421 32.5889C47.3735 32.3479 47.5566 32.1602 47.7913 32.0256C48.026 31.891 48.2905 31.8237 48.5847 31.8237C48.882 31.8237 49.1464 31.891 49.378 32.0256C49.6127 32.157 49.7942 32.3432 49.9226 32.5842C50.054 32.8221 50.1197 33.0943 50.1197 33.401C50.1197 33.7077 50.054 33.9816 49.9226 34.2225C49.7911 34.4604 49.608 34.6466 49.3733 34.7812C49.1417 34.9157 48.8773 34.983 48.58 34.983ZM48.5847 34.5558C48.7881 34.5558 48.968 34.5073 49.1245 34.4103C49.2841 34.3133 49.4077 34.1787 49.4954 34.0066C49.5861 33.8313 49.6315 33.6326 49.6315 33.4104C49.6315 33.1882 49.5861 32.9895 49.4954 32.8142C49.4077 32.6359 49.2841 32.4982 49.1245 32.4011C48.9649 32.301 48.7834 32.2509 48.58 32.2509C48.3766 32.2509 48.195 32.2994 48.0354 32.3964C47.879 32.4935 47.7553 32.6296 47.6646 32.8048C47.5769 32.977 47.5331 33.1757 47.5331 33.401C47.5331 33.6232 47.5769 33.822 47.6646 33.9972C47.7553 34.1725 47.8805 34.3102 48.0401 34.4103C48.1997 34.5073 48.3812 34.5558 48.5847 34.5558Z" fill="#F15A38"/>
<path d="M44.3476 34.9405C44.2161 34.9405 44.1504 34.867 44.1504 34.7199V32.138C44.1504 32.0535 44.1692 31.9878 44.2067 31.9408C44.2474 31.8908 44.3053 31.8657 44.3804 31.8657H44.4602C44.5291 31.8657 44.5823 31.8798 44.6198 31.908C44.6574 31.933 44.7012 31.98 44.7513 32.0488L46.2535 34.18V32.0864C46.2535 31.9393 46.3207 31.8657 46.4553 31.8657H46.5116C46.6431 31.8657 46.7088 31.9393 46.7088 32.0864V34.6682C46.7088 34.7527 46.6885 34.82 46.6478 34.8701C46.6071 34.917 46.5523 34.9405 46.4835 34.9405H46.4459C46.3771 34.9405 46.327 34.9311 46.2957 34.9124C46.2644 34.8904 46.2284 34.8513 46.1877 34.795L44.6057 32.5558V34.7199C44.6057 34.867 44.5369 34.9405 44.3992 34.9405H44.3476Z" fill="#F15A38"/>
<path d="M41.1357 33.4104C41.1357 33.1037 41.2015 32.8299 41.3329 32.5889C41.4643 32.3479 41.6459 32.1602 41.8774 32.0256C42.1122 31.891 42.3797 31.8237 42.6802 31.8237C43.0213 31.8237 43.3077 31.9051 43.5392 32.0678C43.63 32.1304 43.7004 32.1993 43.7505 32.2744C43.8006 32.3464 43.8256 32.4105 43.8256 32.4669C43.8256 32.5357 43.8037 32.5905 43.7599 32.6312C43.7192 32.6718 43.6738 32.7016 43.6237 32.7204C43.5737 32.736 43.5471 32.7391 43.5439 32.7297C43.4594 32.5795 43.339 32.4637 43.1825 32.3824C43.026 32.301 42.8601 32.2603 42.6849 32.2603C42.4815 32.2603 42.2999 32.3088 42.1403 32.4058C41.9839 32.4997 41.8602 32.6343 41.7695 32.8095C41.6819 32.9817 41.638 33.1788 41.638 33.401C41.638 33.6201 41.6834 33.8173 41.7742 33.9925C41.8649 34.1678 41.9901 34.3039 42.1497 34.4009C42.3125 34.4979 42.494 34.5465 42.6943 34.5465C42.9008 34.5465 43.0823 34.4995 43.2388 34.4056C43.3984 34.3086 43.5095 34.1787 43.5721 34.016C43.5752 34.0066 43.6034 34.0097 43.6566 34.0254C43.7129 34.041 43.763 34.0692 43.8068 34.1099C43.8506 34.1506 43.8725 34.2053 43.8725 34.2742C43.8725 34.3336 43.8459 34.4041 43.7927 34.4854C43.7427 34.5668 43.6691 34.6419 43.5721 34.7108C43.328 34.8923 43.026 34.983 42.6661 34.983C42.3688 34.983 42.1043 34.9173 41.8728 34.7859C41.6412 34.6513 41.4597 34.4651 41.3282 34.2272C41.1999 33.9863 41.1357 33.714 41.1357 33.4104Z" fill="#F15A38"/>
<path d="M38.9437 34.922C38.8655 34.922 38.8029 34.8985 38.756 34.8516C38.709 34.8015 38.6855 34.7358 38.6855 34.6544V32.157C38.6855 32.0757 38.709 32.0099 38.756 31.9599C38.8029 31.9098 38.8655 31.8848 38.9437 31.8848H40.7041C40.7792 31.8848 40.8356 31.902 40.8731 31.9364C40.9107 31.9708 40.9294 32.0209 40.9294 32.0866V32.1148C40.9294 32.2494 40.8543 32.3166 40.7041 32.3166H39.1691V33.1663H40.3567C40.507 33.1663 40.5821 33.2305 40.5821 33.3588V33.3729C40.5821 33.5074 40.507 33.5747 40.3567 33.5747H39.1691V34.4948H40.7323C40.8794 34.4948 40.9529 34.559 40.9529 34.6873V34.7108C40.9529 34.8516 40.8794 34.922 40.7323 34.922H38.9437Z" fill="#F15A38"/>
<path d="M36.9166 32.3166H36.0857C36.0137 32.3166 35.9574 32.2994 35.9167 32.265C35.8791 32.2275 35.8604 32.1758 35.8604 32.1101V32.0866C35.8604 32.0209 35.8791 31.9708 35.9167 31.9364C35.9574 31.902 36.0137 31.8848 36.0857 31.8848H38.2357C38.3828 31.8848 38.4563 31.9521 38.4563 32.0866V32.1101C38.4563 32.1758 38.4375 32.2275 38.4 32.265C38.3624 32.2994 38.3077 32.3166 38.2357 32.3166H37.4048V34.7201C37.4048 34.8672 37.3328 34.9408 37.1889 34.9408H37.1231C36.9854 34.9408 36.9166 34.8672 36.9166 34.7201V32.3166Z" fill="#F15A38"/>
<path d="M138 11.6217C138 12.1064 137.823 12.6131 137.559 12.9656L132.779 19.4864V24.5312C132.779 25.853 131.699 26.7342 130.598 26.7342H130.421C129.276 26.7342 128.218 25.853 128.218 24.5312V19.4864L123.504 12.9215C123.24 12.569 123.107 12.1284 123.107 11.6217C123.107 10.4101 124.077 9.30859 125.332 9.30859C126.037 9.30859 126.786 9.70513 127.183 10.2559L130.531 14.8822C131.413 13.6485 132.955 11.4896 133.836 10.2779C134.277 9.66107 134.96 9.33062 135.686 9.33062C136.898 9.33062 138 10.4321 138 11.6217Z" fill="#351D12"/>
<path d="M121.685 24.5307C121.685 25.6983 120.738 26.7337 119.482 26.7337H119.284C118.138 26.7337 117.103 25.6983 117.103 24.5307V19.8383H111.177V24.5307C111.177 25.6983 110.186 26.7337 108.996 26.7337H108.798C107.652 26.7337 106.595 25.6983 106.595 24.5307V11.5331C106.595 10.3214 107.652 9.33008 108.798 9.33008H108.996C110.186 9.33008 111.177 10.3214 111.177 11.5331V15.2561H117.103V11.5331C117.103 10.3214 118.138 9.33008 119.284 9.33008H119.482C120.738 9.33008 121.685 10.3875 121.685 11.5331V24.5307Z" fill="#351D12"/>
<path d="M105.153 14.9477C105.153 18.4064 103.06 20.5433 99.7114 20.5433H94.7326V24.5307C94.7326 25.6983 93.7853 26.7337 92.5296 26.7337H92.3534C91.2078 26.7337 90.1504 25.6983 90.1504 24.5307V11.6432C90.1504 10.3875 91.2959 9.33008 92.4635 9.33008H99.7114C103.06 9.33008 105.153 11.489 105.153 14.9477ZM100.593 14.9477C100.593 14.463 100.46 13.9123 99.7114 13.9123H94.7326V15.9831H99.7114C100.46 15.9831 100.593 15.4544 100.593 14.9477Z" fill="#351D12"/>
<path d="M87.4974 19.9044C87.4974 23.2309 86.2417 26.9099 79.9191 26.9099C73.5965 26.9099 72.3408 23.2309 72.3408 19.9044V11.5331C72.3408 10.3875 73.4423 9.33008 74.5438 9.33008H74.7421C75.8436 9.33008 76.923 10.3875 76.923 11.5331V19.9044C76.923 21.3143 77.5619 22.3497 79.9191 22.3497C82.2763 22.3497 82.9152 21.3143 82.9152 19.9044V11.5331C82.9152 10.3875 83.9946 9.33008 85.0961 9.33008H85.2944C86.3959 9.33008 87.4974 10.3875 87.4974 11.5331V19.9044Z" fill="#351D12"/>
<path d="M70.57 17.9436C70.57 23.1867 66.3623 26.8437 61.6039 26.8437C56.8454 26.8437 52.6377 23.2087 52.6377 17.9436C52.6377 12.6564 56.8454 9.02148 61.6039 9.02148C66.3623 9.02148 70.57 12.6564 70.57 17.9436ZM65.9658 17.9436C65.9658 15.6525 64.1373 13.6037 61.6039 13.6037C59.0704 13.6037 57.2419 15.6525 57.2419 17.9436C57.2419 20.2127 59.0704 22.2835 61.6039 22.2835C64.1373 22.2835 65.9658 20.2127 65.9658 17.9436Z" fill="#351D12"/>
<path d="M51.6398 24.2443C51.6398 25.456 50.5384 26.5354 49.3267 26.5354H38.8405C37.6729 26.5354 36.5273 25.5 36.5273 24.2663C36.5273 23.6936 36.7476 23.1649 37.0781 22.7683L44.4361 13.9123H39.6556C38.4439 13.9123 37.3424 12.8989 37.3424 11.6432C37.3424 10.4316 38.4439 9.33008 39.6556 9.33008H49.1945C50.4282 9.33008 51.5077 10.4316 51.5077 11.6212C51.5077 12.238 51.3094 12.7227 50.979 13.1192L43.5989 21.9752H49.3267C50.5384 21.9752 51.6398 23.0327 51.6398 24.2443Z" fill="#351D12"/>
</svg>
